<svg data-v-0dd9719b="" version="1.0" xmlns="http://www.w3.org/2000/svg" xmlns:xlink="http://www.w3.org/1999/xlink"
  width="250" height="60" viewBox="0 0 250 60">
  <g data-v-0dd9719b="" fill="#333333" class="icon-text-wrapper icon-svg-group iconsvg">
    <g class="iconsvg-imagesvg" transform="translate(0,0)">
      <g>
        <rect fill="#333333" fill-opacity="0" stroke-width="2" x="0" y="0" width="60" height="60" class="image-rect">
        </rect> <svg filter="url(#colors1693792221)" x="0" y="0" width="60" height="60" filtersec="colorsf6938593438"
          class="image-svg-svg primary" style="overflow: visible;"><svg xmlns="http://www.w3.org/2000/svg"
            viewBox="0.7999999999999998 0.7999999999999998 91.09999 91.1">
            <path
              d="M45.1 21.5L11.6 55M37 47l26.8-26.8m-8.1 25.6L29 72.5m52.2-34.8L47.6 71.3m42.3-24.9L46.4 2.8 2.8 46.4l43.5 43.5 43.6-43.5zM45.1 21.5L11.6 55M37 47l26.8-26.8m-8.1 25.6L29 72.5m52.2-34.8L47.6 71.3m42.3-24.9L46.4 2.8 2.8 46.4l43.5 43.5 43.6-43.5z"
              fill="none" stroke="#333" stroke-width="4" stroke-miterlimit="10"></path>
          </svg></svg>
        <defs>
          <filter id="colors1693792221">
            <feColorMatrix type="matrix" values="0 0 0 0 0.0859375  0 0 0 0 0.515625  0 0 0 0 0.671875  0 0 0 1 0"
              class="icon-fecolormatrix"></feColorMatrix>
          </filter>
          <filter id="colorsf6938593438">
            <feColorMatrix type="matrix" values="0 0 0 0 0.99609375  0 0 0 0 0.99609375  0 0 0 0 0.99609375  0 0 0 1 0"
              class="icon-fecolormatrix"></feColorMatrix>
          </filter>
          <filter id="colorsb1950673661">
            <feColorMatrix type="matrix" values="0 0 0 0 0  0 0 0 0 0  0 0 0 0 0  0 0 0 1 0" class="icon-fecolormatrix">
            </feColorMatrix>
          </filter>
        </defs>
      </g>
    </g>
    <g transform="translate(67,21.934999465942383)">
      <g data-gra="path-name" fill-rule="" class="tp-name iconsvg-namesvg">
        <g transform="scale(1)">
          <g>
            <path
              d="M1.51-9.32L14.5-9.32 13.4-1.16 10.05-1.16 10.98-7.46 9.49-7.46 8.57-1.16 5.61-1.16 6.55-7.46 5.09-7.46 4.12-1.16 0.77-1.16 1.89-8.78 1.51-9.32ZM16.98-9.32L25.33-9.32Q25.89-9.32 26.17-8.87 26.45-8.41 26.45-7.85L26.45-7.85 25.52-1.16 17.17-1.16Q16.61-1.16 16.33-1.53 16.05-1.89 16.05-2.46L16.05-2.46 16.98-9.32ZM22.74-7.46L20.5-7.46 19.76-3.02 21.99-3.02 22.74-7.46ZM28.56-9.32L38.77-9.32 37.65-1.16 33.93-1.16 34.86-7.46 32.64-7.46 31.71-1.16 28-1.16 29.12-8.78 28.56-9.32ZM42.02-9.32L42.17-10.44 41.8-11 45.88-11 45.63-9.32 47.93-9.32 47.55-7.46 45.4-7.46 44.76-3.02 46.62-3.02 46.25-1.16 42.17-1.16Q41.61-1.16 41.26-1.53 40.92-1.89 41.05-2.46L41.05-2.46 41.8-7.46 40.32-7.46 40.51-9.32 42.02-9.32ZM50.02-9.32L58.38-9.32Q58.94-9.32 59.22-8.87 59.5-8.41 59.5-7.85L59.5-7.85 58.57-1.16 50.22-1.16Q49.66-1.16 49.37-1.53 49.09-1.89 49.09-2.46L49.09-2.46 50.02-9.32ZM55.78-7.46L53.54-7.46 52.81-3.02 55.03-3.02 55.78-7.46ZM68.01-6.65L67.68-4.68 61.08-4.68 61.39-6.65 68.01-6.65ZM75.33-12.1L74.97-10.05 71.45-10.05 71.81-12.1 75.33-12.1ZM71.25-8.76L70.69-9.32 74.97-9.32 73.48 1.6Q73.4 2.17 72.98 2.53 72.57 2.9 72.01 2.9L72.01 2.9 68.1 2.9 69.76 1.04 71.25-8.76ZM77.81-3.02L82.64-3.02 82.82-4.31 77.25-4.31 78-9.32 86.9-9.32 86.53-6.92 83.32-6.92 83.38-7.46 81.15-7.46 80.96-6.17 86.36-6.17 85.97-2.46Q85.83-1.89 85.35-1.53 84.87-1.16 84.31-1.16L84.31-1.16 76.88-1.16 77.25-3.75 77.81-3.02ZM95.4-6.65L95.08-4.68 88.48-4.68 88.79-6.65 95.4-6.65ZM97.98-3.02L102.81-3.02 102.98-4.31 97.42-4.31 98.17-9.32 107.06-9.32 106.7-6.92 103.49-6.92 103.54-7.46 101.32-7.46 101.13-6.17 106.52-6.17 106.14-2.46Q106-1.89 105.52-1.53 105.03-1.16 104.47-1.16L104.47-1.16 97.05-1.16 97.42-3.75 97.98-3.02ZM114.74-5.99L115.03-7.46 113.06-7.46 112.88-6.73 109.17-6.73 109.73-9.32 118.82-9.32 117.7-2.09 118.45-1.16 109.73-1.16Q109.17-1.16 108.89-1.53 108.61-1.89 108.61-2.46L108.61-2.46 109.17-5.99 114.74-5.99ZM114.37-4.14L112.52-4.14 112.32-3.02 114.18-3.02 114.37-4.14ZM120.83-9.32L131.04-9.32 129.92-1.16 126.21-1.16 127.14-7.46 124.91-7.46 123.98-1.16 120.27-1.16 121.39-8.78 120.83-9.32ZM139.45-9.32L140.01-13.23 143.73-13.23 142.06-1.16 133.71-1.16Q133.15-1.16 132.87-1.53 132.59-1.89 132.59-2.46L132.59-2.46 133.52-9.32 139.45-9.32ZM139.28-7.46L136.94-7.46 136.22-3.02 138.58-3.02 139.28-7.46ZM146.45-13.23L150.53-13.23 149.99-9.32 155.93-9.32 155-2.46Q154.84-1.89 154.46-1.53 154.07-1.16 153.51-1.16L153.51-1.16 145.16-1.16 146.82-12.67 146.45-13.23ZM152.02-7.46L149.8-7.46 149.16-3.02 151.36-3.02 152.02-7.46ZM158.4-9.32L166.75-9.32Q167.32-9.32 167.6-8.87 167.88-8.41 167.88-7.85L167.88-7.85 166.95-1.16 158.59-1.16Q158.03-1.16 157.75-1.53 157.47-1.89 157.47-2.46L157.47-2.46 158.4-9.32ZM164.16-7.46L161.92-7.46 161.19-3.02 163.41-3.02 164.16-7.46ZM170.53-8.59L169.96-9.32 173.87-9.32 174.68-7.6 175.73-8.95 175.53-9.32 179.61-9.32 176.21-5.24 178.51-1.16 174.8-1.16 173.99-2.69 172.56-1.16 169.04-1.16 172.44-5.24 170.53-8.59Z"
              transform="translate(-0.7699999809265137, 13.229999542236328)"></path>
          </g>
          <!---->
          <!---->
          <!---->
          <!---->
          <!---->
          <!---->
          <!---->
        </g>
      </g>
      <!---->
    </g>
  </g>
</svg>